<?xml version="1.0" encoding="UTF-8"?>
<svg width="512px" height="326px" viewBox="0 0 512 326" version="1.1" xmlns="http://www.w3.org/2000/svg" xmlns:xlink="http://www.w3.org/1999/xlink">
    <title>Slice 1</title>
    <g id="Page-1" stroke="none" stroke-width="1" fill="none" fill-rule="evenodd">
        <g id="cargo-truck" transform="translate(0.000000, 0.870013)" fill="#7FBC5B" fill-rule="nonzero">
            <path d="M422.4,237.219974 C398.402928,237.219974 378.88,256.747922 378.88,280.739974 C378.88,304.737046 398.402928,324.259974 422.4,324.259974 C446.392052,324.259974 465.92,304.737046 465.92,280.739974 C465.92,256.747922 446.392052,237.219974 422.4,237.219974 Z M422.4,293.539974 C415.339922,293.539974 409.6,287.800052 409.6,280.739974 C409.6,273.679895 415.339922,267.939974 422.4,267.939974 C429.460078,267.939974 435.2,273.679895 435.2,280.739974 C435.2,287.800052 429.460078,293.539974 422.4,293.539974 Z" id="Shape"></path>
            <path d="M418.232052,56.3149804 L343.04,56.3149804 C337.382065,56.3149804 332.8,60.902902 332.8,66.5549804 L332.8,266.23498 C332.8,271.887059 337.382065,276.47498 343.04,276.47498 L353.899922,276.47498 C358.968889,276.47498 363.458928,272.824052 364.113987,267.796915 C368.13302,237.004967 392.693961,217.907869 422.40502,217.907869 C452.116078,217.907869 476.67702,237.005804 480.696052,267.796915 C481.351111,272.824889 485.836131,276.47498 490.910118,276.47498 L501.759163,276.47498 C507.411242,276.47498 511.999163,271.887059 511.999163,266.23498 L511.999163,166.39498 C511.999163,163.988915 511.154196,161.664 509.613176,159.825987 L426.085229,59.9859869 C424.140967,57.6619085 421.263059,56.3149804 418.232052,56.3149804 Z M353.28,138.23498 L353.28,87.0349804 C353.28,81.382902 357.862065,76.7949804 363.52,76.7949804 L408.627033,76.7949804 C411.663059,76.7949804 414.545987,78.1469281 416.491085,80.4810458 L459.156078,131.681046 C464.711111,138.352105 459.970092,148.47498 451.287007,148.47498 L363.52,148.47498 C357.862065,148.47498 353.28,143.892915 353.28,138.23498 Z" id="Shape"></path>
            <path d="M10.24,276.48 L36.4599216,276.48 C41.5288889,276.48 46.0189281,272.829072 46.6739869,267.801935 C50.6930196,237.009987 75.2539608,217.912889 104.96502,217.912889 C134.676078,217.912889 159.23702,237.010824 163.256052,267.801935 C163.911111,272.829908 168.396131,276.48 173.470118,276.48 L302.08,276.48 C307.732915,276.48 312.32,271.892078 312.32,266.24 L312.32,10.24 C312.32,4.58792157 307.732078,0 302.08,0 L10.24,0 C4.58206536,0 0,4.58792157 0,10.24 L0,266.24 C0,271.892915 4.58206536,276.48 10.24,276.48 Z" id="Path"></path>
            <path d="M104.96,237.219974 C80.9629281,237.219974 61.44,256.747922 61.44,280.739974 C61.44,304.737046 80.9629281,324.259974 104.96,324.259974 C128.952052,324.259974 148.48,304.737046 148.48,280.739974 C148.48,256.747922 128.952052,237.219974 104.96,237.219974 Z M104.96,293.539974 C97.8999216,293.539974 92.16,287.800052 92.16,280.739974 C92.16,273.679895 97.8999216,267.939974 104.96,267.939974 C112.020078,267.939974 117.76,273.679895 117.76,280.739974 C117.76,287.800052 112.020078,293.539974 104.96,293.539974 Z" id="Shape"></path>
        </g>
    </g>
</svg>