<?xml version="1.0" encoding="UTF-8"?>
<svg width="384px" height="512px" viewBox="0 0 384 512" version="1.1" xmlns="http://www.w3.org/2000/svg" xmlns:xlink="http://www.w3.org/1999/xlink">
    <title>Slice 1</title>
    <g id="Page-1" stroke="none" stroke-width="1" fill="none" fill-rule="evenodd">
        <g id="shopping-list" fill="#7FBC5B" fill-rule="nonzero">
            <path d="M272,32 L237.248,32 C230.656,13.376 212.864,0 192,0 C171.136,0 153.344,13.376 146.72,32 L112,32 C103.168,32 96,39.168 96,48 L96,112 C96,120.832 103.168,128 112,128 L272,128 C280.832,128 288,120.832 288,112 L288,48 C288,39.168 280.832,32 272,32 Z" id="Path"></path>
            <path d="M352,64 L320,64 L320,112 C320,138.464 298.464,160 272,160 L112,160 C85.536,160 64,138.464 64,112 L64,64 L32,64 C14.368,64 0,78.368 0,96 L0,480 C0,497.952 14.048,512 32,512 L352,512 C369.952,512 384,497.952 384,480 L384,96 C384,78.048 369.952,64 352,64 Z M187.328,347.328 L123.328,411.328 C120.192,414.432 116.096,416 112,416 C107.904,416 103.808,414.432 100.672,411.328 L68.672,379.328 C62.432,373.088 62.432,362.944 68.672,356.704 C74.912,350.464 85.056,350.464 91.296,356.704 L112,377.376 L164.672,324.704 C170.912,318.464 181.056,318.464 187.296,324.704 C193.536,330.944 193.568,341.056 187.328,347.328 Z M187.328,219.328 L123.328,283.328 C120.192,286.432 116.096,288 112,288 C107.904,288 103.808,286.432 100.672,283.328 L68.672,251.328 C62.432,245.088 62.432,234.944 68.672,228.704 C74.912,222.464 85.056,222.464 91.296,228.704 L112,249.376 L164.672,196.704 C170.912,190.464 181.056,190.464 187.296,196.704 C193.536,202.944 193.568,213.056 187.328,219.328 Z M304,384 L240,384 C231.168,384 224,376.832 224,368 C224,359.168 231.168,352 240,352 L304,352 C312.832,352 320,359.168 320,368 C320,376.832 312.832,384 304,384 Z M304,256 L240,256 C231.168,256 224,248.832 224,240 C224,231.168 231.168,224 240,224 L304,224 C312.832,224 320,231.168 320,240 C320,248.832 312.832,256 304,256 Z" id="Shape"></path>
        </g>
    </g>
</svg>