<?xml version="1.0" encoding="UTF-8"?>
<svg width="478px" height="478px" viewBox="0 0 478 478" version="1.1" xmlns="http://www.w3.org/2000/svg" xmlns:xlink="http://www.w3.org/1999/xlink">
    <title>Untitled 91</title>
    <g id="Page-1" stroke="none" stroke-width="1" fill="none" fill-rule="evenodd">
        <g id="calendar" fill="#000000" fill-rule="nonzero">
            <path d="M426.667,51.2 L375.467,51.2 L375.467,17.067 C375.467,7.641 367.826,0 358.4,0 C348.974,0 341.333,7.641 341.333,17.067 L341.333,51.2 L136.533,51.2 L136.533,17.067 C136.533,7.641 128.892,0 119.467,0 C110.042,0 102.4,7.641 102.4,17.067 L102.4,51.2 L51.2,51.2 C22.923,51.2 0,74.123 0,102.4 L0,426.667 C0,454.944 22.923,477.867 51.2,477.867 L426.667,477.867 C454.944,477.867 477.867,454.944 477.867,426.667 L477.867,102.4 C477.867,74.123 454.944,51.2 426.667,51.2 Z M443.733,426.667 C443.733,436.093 436.092,443.734 426.666,443.734 L51.2,443.734 C41.774,443.734 34.133,436.093 34.133,426.667 L34.133,204.8 L443.733,204.8 L443.733,426.667 Z M443.735,170.667 L34.133,170.667 L34.133,102.4 C34.133,92.974 41.774,85.333 51.2,85.333 L102.4,85.333 L102.4,119.466 C102.4,128.892 110.041,136.533 119.467,136.533 C128.893,136.533 136.534,128.892 136.534,119.466 L136.534,85.333 L341.334,85.333 L341.334,119.466 C341.334,128.892 348.975,136.533 358.401,136.533 C367.827,136.533 375.468,128.892 375.468,119.466 L375.468,85.333 L426.668,85.333 C436.094,85.333 443.735,92.974 443.735,102.4 L443.735,170.667 L443.735,170.667 Z" id="Shape"></path>
            <path d="M136.533,238.933 L102.4,238.933 C92.974,238.933 85.333,246.574 85.333,256 C85.333,265.426 92.974,273.067 102.4,273.067 L136.533,273.067 C145.959,273.067 153.6,265.426 153.6,256 C153.6,246.574 145.959,238.933 136.533,238.933 Z" id="Path"></path>
            <path d="M256,238.933 L221.867,238.933 C212.441,238.933 204.8,246.574 204.8,256 C204.8,265.426 212.441,273.067 221.867,273.067 L256,273.067 C265.426,273.067 273.067,265.426 273.067,256 C273.067,246.574 265.426,238.933 256,238.933 Z" id="Path"></path>
            <path d="M375.467,238.933 L341.334,238.933 C331.908,238.933 324.267,246.574 324.267,256 C324.267,265.426 331.908,273.067 341.334,273.067 L375.467,273.067 C384.893,273.067 392.534,265.426 392.534,256 C392.533,246.574 384.892,238.933 375.467,238.933 Z" id="Path"></path>
            <path d="M136.533,307.2 L102.4,307.2 C92.974,307.2 85.333,314.841 85.333,324.267 C85.333,333.693 92.974,341.334 102.4,341.334 L136.533,341.334 C145.959,341.334 153.6,333.693 153.6,324.267 C153.6,314.841 145.959,307.2 136.533,307.2 Z" id="Path"></path>
            <path d="M256,307.2 L221.867,307.2 C212.441,307.2 204.8,314.841 204.8,324.267 C204.8,333.693 212.441,341.334 221.867,341.334 L256,341.334 C265.426,341.334 273.067,333.693 273.067,324.267 C273.067,314.841 265.426,307.2 256,307.2 Z" id="Path"></path>
            <path d="M375.467,307.2 L341.334,307.2 C331.908,307.2 324.267,314.841 324.267,324.267 C324.267,333.693 331.908,341.334 341.334,341.334 L375.467,341.334 C384.893,341.334 392.534,333.693 392.534,324.267 C392.533,314.841 384.892,307.2 375.467,307.2 Z" id="Path"></path>
            <path d="M136.533,375.467 L102.4,375.467 C92.974,375.467 85.333,383.108 85.333,392.534 C85.333,401.96 92.974,409.6 102.4,409.6 L136.533,409.6 C145.959,409.6 153.6,401.959 153.6,392.533 C153.6,383.107 145.959,375.467 136.533,375.467 Z" id="Path"></path>
            <path d="M256,375.467 L221.867,375.467 C212.441,375.467 204.8,383.108 204.8,392.534 C204.8,401.96 212.441,409.601 221.867,409.601 L256,409.601 C265.426,409.601 273.067,401.96 273.067,392.534 C273.067,383.108 265.426,375.467 256,375.467 Z" id="Path"></path>
            <path d="M375.467,375.467 L341.334,375.467 C331.908,375.467 324.267,383.108 324.267,392.534 C324.267,401.96 331.908,409.601 341.334,409.601 L375.467,409.601 C384.893,409.601 392.534,401.96 392.534,392.534 C392.534,383.108 384.892,375.467 375.467,375.467 Z" id="Path"></path>
        </g>
    </g>
</svg>