<?xml version="1.0" encoding="UTF-8"?>
<svg width="512px" height="492px" viewBox="0 0 512 492" version="1.1" xmlns="http://www.w3.org/2000/svg" xmlns:xlink="http://www.w3.org/1999/xlink">
    <title>Slice 1</title>
    <g id="Page-1" stroke="none" stroke-width="1" fill="none" fill-rule="evenodd">
        <g id="route" transform="translate(0.000000, 0.549208)" fill="#000000" fill-rule="nonzero">
            <polygon id="XMLID_4945_" points="75.2941176 316.235294 105.411765 316.235294 105.411765 346.352941 75.2941176 346.352941"></polygon>
            <path d="M421.647059,249.960408 C422.746353,248.267796 512,142.625129 512,90.3529412 C512,40.5313255 471.467671,1.42108547e-14 421.647059,1.42108547e-14 C371.826447,1.42108547e-14 331.294118,40.5313255 331.294118,90.3529412 C331.294118,142.345035 420.746541,248.574996 421.647059,249.960408 Z M421.647059,30.1176471 C454.8608,30.1176471 481.882353,57.1392 481.882353,90.3529412 C481.882353,113.268455 448.627451,165.223404 421.647059,201.264188 C394.666667,165.223404 361.411765,113.268455 361.411765,90.3529412 C361.411765,57.1392 388.433318,30.1176471 421.647059,30.1176471 Z" id="XMLID_4953_"></path>
            <polygon id="XMLID_4971_" points="406.588235 75.2941176 436.705882 75.2941176 436.705882 105.411765 406.588235 105.411765"></polygon>
            <path d="M90.3529412,240.941176 C40.5323294,240.941176 0,281.472502 0,331.294118 C0,383.286212 89.4534275,489.517176 90.3529412,490.901584 C118.085271,456.244204 180.705882,375.518871 180.705882,331.294118 C180.705882,281.472502 140.173553,240.941176 90.3529412,240.941176 Z M90.3529412,442.205365 C63.372549,406.16458 30.1176471,354.209631 30.1176471,331.293114 C30.1176471,298.079373 57.1392,271.05782 90.3529412,271.05782 C123.566682,271.05782 150.588235,298.079373 150.588235,331.293114 C150.588235,354.209631 117.333333,406.16458 90.3529412,442.205365 Z" id="XMLID_4976_"></path>
            <path d="M466.823529,391.529412 L293.647059,391.529412 C281.191404,391.529412 271.058824,381.395827 271.058824,368.941176 C271.058824,356.486525 281.191404,346.352941 293.647059,346.352941 L436.705882,346.352941 L436.705882,286.117647 L406.588235,286.117647 L406.588235,316.235294 L293.647059,316.235294 C264.584533,316.235294 240.941176,339.878651 240.941176,368.941176 C240.941176,398.001694 264.584533,421.647059 293.647059,421.647059 L466.823529,421.647059 C475.127969,421.647059 481.882353,428.402447 481.882353,436.705882 C481.882353,445.009318 475.127969,451.764706 466.823529,451.764706 L150.588235,451.764706 L150.588235,481.882353 L466.823529,481.882353 C491.733835,481.882353 512,461.615184 512,436.705882 C512,411.793569 491.733835,391.529412 466.823529,391.529412 Z" id="XMLID_4977_"></path>
        </g>
    </g>
</svg>